<?xml version="1.0" standalone="no"?>
<!DOCTYPE svg PUBLIC "-//W3C//DTD SVG 20010904//EN"
 "http://www.w3.org/TR/2001/REC-SVG-20010904/DTD/svg10.dtd">
<svg version="1.0" xmlns="http://www.w3.org/2000/svg"
 width="3438.000000pt" height="1706.000000pt" viewBox="0 0 3438.000000 1706.000000"
 preserveAspectRatio="xMidYMid meet">

<g transform="translate(0.000000,1706.000000) scale(0.100000,-0.100000)"
fill="#000000" stroke="none">
<path d="M9135 16308 c-575 -64 -1156 -370 -1542 -809 -329 -375 -527 -798
-610 -1304 -28 -170 -25 -584 5 -759 50 -288 121 -505 243 -746 138 -273 191
-331 283 -315 23 4 51 8 63 8 11 1 19 5 17 9 -3 4 5 21 18 38 41 56 23 143
-55 273 -62 101 -97 174 -150 307 -334 841 -126 1793 529 2420 787 753 1986
800 2839 113 664 -535 959 -1436 744 -2270 -160 -621 -584 -1145 -1154 -1424
-304 -149 -609 -219 -950 -219 -522 0 -984 173 -1413 530 -55 46 -67 52 -110
53 -30 0 -60 -6 -81 -19 l-33 -19 -70 75 -71 75 68 -78 67 -77 -16 -34 c-40
-84 -13 -142 108 -243 314 -259 723 -451 1101 -518 55 -10 112 -20 127 -24
l28 -6 -119 -176 c-95 -140 -121 -187 -130 -230 -24 -113 28 -226 129 -283
l55 -31 165 2 165 3 429 -1693 c236 -930 430 -1696 432 -1702 3 -6 -61 -10
-179 -11 l-183 -1 -23 121 c-92 471 -279 1043 -481 1462 -68 141 -93 164 -179
164 -46 0 -54 -4 -97 -45 l-47 -44 6 -63 c5 -48 21 -96 71 -204 473 -1032 665
-2298 491 -3239 -72 -386 -205 -711 -398 -971 -72 -98 -231 -274 -247 -274 -3
0 -19 73 -34 163 -103 592 -285 1189 -517 1693 l-74 159 0 115 c0 109 2 119
32 183 18 37 54 91 81 120 337 362 502 773 502 1252 0 305 -59 548 -196 815
-180 349 -469 630 -819 795 -260 123 -507 173 -800 162 -328 -13 -613 -106
-904 -296 -167 -109 -174 -109 -331 -5 -63 42 -153 95 -200 119 -743 372
-1636 166 -2151 -495 -414 -531 -494 -1255 -205 -1865 82 -173 157 -283 325
-475 73 -85 108 -154 124 -246 17 -99 1 -162 -97 -382 -47 -105 -113 -265
-147 -355 -53 -141 -60 -169 -56 -215 3 -43 10 -59 37 -88 63 -64 159 -64 219
0 12 12 51 100 86 195 36 95 97 243 136 329 116 257 123 282 124 452 0 162
-14 222 -81 351 -34 64 -51 87 -194 254 -171 201 -284 448 -327 719 -22 139
-14 416 15 542 68 292 193 517 406 729 172 171 347 282 562 353 265 89 575 95
850 16 116 -33 327 -136 434 -213 124 -89 171 -105 305 -106 130 0 160 11 320
119 171 116 340 188 545 232 133 29 420 27 559 -4 291 -65 518 -189 726 -397
210 -210 342 -454 406 -755 32 -150 33 -429 1 -576 -61 -285 -168 -491 -377
-729 -160 -183 -219 -327 -219 -535 0 -147 12 -189 119 -431 178 -401 308
-795 410 -1242 38 -169 87 -429 104 -552 7 -44 14 -90 16 -101 4 -18 -7 -29
-63 -62 -168 -102 -456 -225 -670 -286 l-93 -27 -58 53 c-31 29 -80 65 -107
80 -101 54 -134 58 -551 58 -239 0 -402 -4 -435 -11 -139 -29 -282 -141 -346
-270 -17 -37 -32 -74 -32 -83 0 -14 -26 -16 -254 -16 l-253 0 -18 48 c-56 151
-195 276 -352 317 -84 22 -802 22 -886 0 -84 -22 -166 -66 -227 -124 l-55 -52
-119 36 c-66 20 -162 52 -215 71 -106 39 -368 166 -444 214 l-49 31 7 52 c15
119 68 412 100 560 39 175 42 215 21 255 -27 52 -62 75 -119 80 -62 5 -105
-12 -136 -56 -24 -35 -86 -300 -131 -572 -19 -113 -13 -112 -102 -24 -149 148
-293 359 -388 573 -225 502 -295 1223 -199 2026 93 773 348 1564 708 2195 78
137 303 484 320 495 5 2 145 7 312 9 334 4 370 10 389 61 19 50 12 94 -19 126
l-29 29 -256 0 c-141 0 -256 2 -256 4 0 2 14 33 30 68 37 79 62 194 59 266 -2
39 1 56 12 62 8 4 392 148 854 320 1408 523 1506 560 1615 601 l105 39 20 -27
c62 -86 154 -159 240 -192 23 -9 42 -20 42 -26 -1 -24 -298 -260 -484 -384
-344 -230 -655 -380 -1114 -535 -286 -97 -299 -105 -299 -182 0 -37 6 -51 29
-75 46 -45 47 -45 371 53 91 28 217 70 280 95 133 52 440 199 573 274 231 131
526 340 724 513 58 50 118 102 134 115 l28 23 98 -32 c678 -222 1249 -675
1729 -1371 52 -76 121 -96 201 -60 55 25 87 85 80 147 -5 51 -36 100 -166 274
-143 191 -230 290 -405 465 -303 302 -602 515 -968 689 -73 35 -173 78 -223
96 -49 18 -93 36 -97 39 -4 3 20 38 53 76 108 126 149 222 149 350 0 293 -275
535 -552 485 -109 -19 -178 -60 -298 -176 l-106 -103 -16 47 c-9 26 -58 166
-108 312 -188 544 -315 1055 -395 1591 -32 216 -31 212 -68 282 -36 69 -91
120 -166 156 -48 22 -68 26 -146 25 l-90 -1 -1383 -516 c-1030 -384 -1395
-524 -1430 -549 -58 -42 -117 -125 -137 -192 -22 -74 -19 -170 8 -236 13 -30
66 -127 118 -215 237 -396 465 -866 631 -1300 41 -107 188 -513 188 -519 0 -1
-39 2 -87 7 -49 5 -131 7 -184 4 -82 -3 -106 -9 -163 -35 -167 -78 -276 -253
-276 -442 0 -269 166 -452 444 -488 l56 -7 -75 -117 c-384 -599 -682 -1351
-826 -2086 l-22 -112 -121 6 c-300 16 -676 -50 -888 -157 -372 -186 -475 -515
-283 -904 80 -162 169 -279 345 -456 272 -273 591 -483 872 -576 l84 -27 32
-114 c66 -233 186 -495 313 -685 207 -309 472 -549 824 -745 185 -103 495
-229 693 -282 42 -11 42 -11 42 -58 0 -177 125 -368 292 -447 106 -50 184 -57
596 -53 324 4 351 6 413 26 131 44 241 137 297 254 l27 57 265 0 266 1 27 -56
c54 -109 171 -210 298 -256 63 -23 71 -23 469 -23 391 0 407 1 475 22 207 66
335 231 360 465 l6 56 132 42 c382 121 736 306 985 513 103 86 283 274 356
371 173 230 297 482 391 791 20 65 37 120 38 120 1 1 45 16 97 34 450 154
1000 621 1195 1016 75 152 99 242 99 380 l-1 110 905 1665 c497 916 906 1668
908 1671 2 4 68 -14 146 -38 115 -36 154 -44 198 -41 141 11 239 116 240 259
0 57 -9 90 -70 254 -38 104 -69 190 -67 192 2 1 72 -1 156 -6 454 -24 885 70
1281 281 816 434 1320 1280 1320 2213 0 406 -86 768 -270 1130 -88 174 -173
309 -219 348 -26 21 -43 27 -82 27 -28 0 -59 -5 -70 -11 -15 -8 -25 -7 -37 3
-15 11 -16 11 -4 -3 11 -14 9 -23 -14 -55 -41 -61 -32 -110 45 -228 428 -661
478 -1487 131 -2193 -433 -883 -1391 -1365 -2346 -1182 -55 10 -124 26 -153
35 l-52 15 88 93 c93 96 192 214 237 280 21 31 26 51 26 98 0 52 -4 62 -32 94
-39 41 -92 57 -145 42 -42 -11 -64 -33 -150 -144 -78 -100 -272 -290 -381
-373 -429 -325 -981 -483 -1503 -431 -378 38 -726 166 -1024 376 -121 85 -106
71 -243 233 l-122 145 117 32 c635 176 1194 634 1508 1236 202 388 295 797
281 1238 -11 379 -90 704 -250 1030 -25 51 -43 96 -41 99 11 10 284 -20 405
-45 231 -47 494 -151 695 -274 276 -169 552 -449 725 -734 116 -194 216 -442
264 -658 39 -177 50 -289 50 -488 0 -280 -34 -486 -125 -745 -27 -77 -49 -153
-49 -169 0 -38 35 -99 68 -118 76 -44 165 -21 203 53 34 67 79 198 115 334
115 437 111 912 -11 1336 -167 580 -523 1067 -1023 1400 -154 102 -156 85 18
168 293 137 578 201 905 201 493 0 979 -169 1346 -469 101 -83 171 -96 232
-43 16 14 22 11 75 -39 l57 -54 -53 56 c-52 55 -53 56 -37 85 21 40 19 103 -4
140 -46 75 -315 261 -535 369 -761 374 -1628 333 -2353 -111 l-105 -64 -102
35 c-252 86 -500 127 -779 129 l-179 1 -69 87 c-396 494 -1006 830 -1631 897
-115 13 -439 12 -553 -1z m-3576 -2524 c22 -9 47 -27 56 -41 11 -15 28 -98 46
-212 83 -534 200 -1023 366 -1528 9 -29 14 -55 11 -58 -5 -5 -271 -105 -1782
-666 -771 -287 -795 -295 -796 -256 0 13 -135 346 -200 492 -131 298 -358 731
-522 1000 -63 104 -71 128 -57 177 16 60 60 88 254 160 99 37 605 225 1125
418 520 194 1042 388 1160 432 300 112 278 107 339 82z m644 -2276 l75 -213
-27 -12 c-24 -10 -612 -229 -2099 -782 -238 -89 -436 -161 -440 -161 -7 0
-153 406 -152 425 0 6 154 68 343 138 188 70 758 282 1267 472 509 189 932
344 941 345 13 0 35 -52 92 -212z m751 150 c27 -8 61 -32 98 -69 45 -45 60
-68 73 -114 32 -108 2 -178 -144 -335 l-79 -85 -74 0 c-130 0 -232 67 -290
191 -54 116 -56 112 79 251 157 163 224 194 337 161z m2834 -505 c88 -104 159
-189 158 -190 -4 -4 -749 -43 -753 -40 -1 2 59 94 134 205 l137 201 46 4 c129
10 100 28 278 -180z m587 -511 c123 -69 260 -129 454 -197 9 -4 -37 -57 -131
-153 -167 -171 -188 -205 -188 -308 0 -84 22 -137 80 -193 47 -45 104 -67 201
-77 37 -4 72 -10 78 -14 8 -5 -16 -226 -89 -793 -55 -432 -100 -794 -101 -804
0 -16 -1 -16 -10 2 -5 11 -155 585 -334 1275 -179 690 -328 1263 -331 1273 -4
14 1 17 33 17 40 0 132 39 153 65 10 12 18 10 54 -14 22 -15 82 -51 131 -79z
m2734 64 c41 -13 78 -30 82 -39 8 -14 169 -444 169 -451 0 -1 -156 46 -347
105 -192 60 -354 109 -360 109 -7 0 -13 4 -13 9 0 5 89 72 198 150 108 78 197
141 197 141 0 0 33 -11 74 -24z m-2837 -1761 c251 -968 458 -1753 461 -1745 3
8 77 577 164 1263 87 687 161 1253 164 1259 5 8 43 6 130 -5 67 -10 124 -19
126 -21 3 -3 -291 -2480 -302 -2540 -3 -16 -2 -26 2 -22 5 4 380 688 835 1519
757 1385 828 1512 850 1509 12 -1 74 -18 136 -38 l113 -35 -29 -52 c-17 -29
-472 -866 -1012 -1862 -540 -995 -993 -1827 -1006 -1848 -30 -45 -78 -77 -119
-77 -39 0 -94 28 -117 60 -16 22 -1118 4335 -1118 4375 0 14 86 22 215 21 l50
-1 457 -1760z m2066 1352 c26 -48 82 -99 124 -113 10 -3 18 -12 16 -19 -4 -19
-1182 -2174 -1186 -2170 -3 3 187 1603 193 1621 2 7 21 8 57 3 29 -4 78 -8
108 -8 142 -1 260 119 260 264 0 73 -11 97 -124 288 -109 185 -107 177 -63
177 77 0 286 33 425 68 l147 37 8 -49 c4 -27 20 -71 35 -99z m-1013 47 c13 -3
60 -75 142 -216 68 -117 122 -213 120 -214 -7 -5 -742 93 -740 99 1 4 75 84
165 178 l163 170 65 -6 c36 -3 74 -8 85 -11z m-7900 -85 c38 -5 72 -15 77 -21
4 -7 17 -43 29 -80 44 -139 11 -269 -92 -362 -59 -53 -65 -54 -229 -31 -178
25 -255 81 -280 200 -28 136 32 258 149 302 39 15 214 11 346 -8z m-1202
-3346 c2 -5 -4 -84 -14 -178 -43 -427 -45 -768 -5 -1145 7 -69 12 -127 10
-129 -5 -6 -109 46 -213 108 -423 251 -771 649 -807 921 -34 253 318 423 888
429 75 0 139 -2 141 -6z m8099 -11 c5 -5 38 -121 72 -258 35 -137 73 -281 85
-320 36 -123 103 -192 220 -230 l65 -21 -114 -118 c-128 -130 -269 -248 -405
-338 -94 -62 -284 -162 -292 -154 -2 3 3 76 12 164 35 331 30 779 -11 1130 -9
73 -13 140 -10 150 6 14 25 16 188 10 100 -4 185 -10 190 -15z m-4897 -3481
c147 -67 154 -280 12 -362 -42 -24 -42 -24 -392 -27 -236 -2 -365 1 -395 8
-155 39 -207 231 -93 342 21 20 49 41 63 47 15 6 175 10 395 10 338 1 373 -1
410 -18z m2135 -3 c126 -64 146 -236 40 -332 -21 -19 -56 -39 -77 -45 -56 -16
-704 -15 -757 1 -55 17 -121 84 -136 139 -25 91 21 198 101 237 43 21 55 22
414 22 365 0 371 0 415 -22z"/>
<path d="M15560 14645 c19 -19 36 -35 39 -35 3 0 -10 16 -29 35 -19 19 -36 35
-39 35 -3 0 10 -16 29 -35z"/>
<path d="M7615 12350 c10 -11 20 -20 23 -20 3 0 -3 9 -13 20 -10 11 -20 20
-23 20 -3 0 3 -9 13 -20z"/>
<path d="M4692 8579 c-188 -37 -332 -210 -332 -398 0 -124 108 -196 216 -145
46 22 73 63 83 123 10 62 30 94 70 111 65 26 127 -17 140 -96 10 -66 37 -112
81 -135 71 -38 158 -15 201 53 30 48 23 171 -14 251 -53 116 -177 213 -301
236 -67 12 -83 12 -144 0z"/>
<path d="M7327 8580 c-107 -19 -217 -95 -274 -191 -35 -58 -63 -152 -63 -208
0 -54 34 -114 79 -139 102 -57 209 4 226 128 20 148 189 140 209 -9 15 -115
137 -179 226 -118 60 40 75 71 74 145 -4 246 -235 435 -477 392z"/>
<path d="M5857 8115 c-153 -29 -274 -91 -363 -187 -96 -102 -144 -238 -144
-408 0 -362 179 -687 454 -824 95 -48 173 -67 276 -67 163 -2 315 61 446 184
162 151 253 346 284 603 42 350 -117 597 -440 685 -101 28 -397 36 -513 14z
m427 -311 c165 -40 226 -119 226 -291 0 -176 -64 -347 -173 -457 -122 -123
-255 -154 -387 -89 -91 45 -172 128 -221 228 -55 113 -73 190 -74 315 0 92 3
111 25 155 46 91 139 139 300 155 95 9 228 2 304 -16z"/>
<path d="M5047 6470 c-93 -24 -154 -81 -207 -195 -64 -136 -89 -281 -90 -502
0 -280 51 -487 152 -615 35 -45 116 -86 184 -94 157 -19 432 79 775 276 l144
82 48 -11 c62 -14 122 -14 184 0 l49 12 95 -57 c149 -91 394 -209 514 -249
250 -82 383 -72 484 37 216 237 216 995 0 1232 -78 84 -165 106 -315 80 -50
-8 -131 -29 -180 -46 -110 -39 -354 -157 -493 -240 l-104 -62 -55 11 c-70 14
-136 13 -187 -3 -39 -12 -42 -11 -130 42 -371 224 -709 342 -868 302z m288
-210 c137 -49 393 -175 504 -249 11 -7 7 -22 -20 -77 -31 -64 -34 -76 -34
-164 0 -87 3 -101 33 -161 17 -37 32 -69 32 -72 0 -10 -176 -106 -312 -171
-171 -82 -311 -127 -400 -129 -61 -1 -71 2 -97 27 -39 37 -76 122 -98 226 -25
117 -26 441 -1 550 25 114 57 191 95 229 l34 34 87 -6 c62 -3 113 -14 177 -37z
m1911 15 c115 -115 159 -554 83 -835 -20 -74 -61 -161 -85 -181 -42 -35 -143
-28 -281 17 -136 45 -523 240 -523 264 0 5 11 30 24 57 58 115 60 228 5 339
-27 55 -30 67 -18 75 65 43 292 161 387 201 143 61 237 87 320 87 54 1 66 -2
88 -24z m-1023 -329 c49 -20 93 -77 106 -135 6 -28 9 -56 7 -63 -3 -7 -7 -25
-10 -40 -8 -35 -59 -94 -100 -115 -48 -25 -126 -21 -179 10 -51 30 -97 108
-97 164 0 66 42 135 105 174 36 23 121 25 168 5z"/>
</g>
</svg>
