<?xml version="1.0" standalone="no"?>
<!DOCTYPE svg PUBLIC "-//W3C//DTD SVG 20010904//EN"
 "http://www.w3.org/TR/2001/REC-SVG-20010904/DTD/svg10.dtd">
<svg version="1.0" xmlns="http://www.w3.org/2000/svg"
 width="3438.000000pt" height="1706.000000pt" viewBox="0 0 3438.000000 1706.000000"
 preserveAspectRatio="xMidYMid meet">

<g transform="translate(0.000000,1706.000000) scale(0.100000,-0.100000)"
fill="#000000" stroke="none">
<path d="M9135 16308 c-575 -64 -1156 -370 -1542 -809 -329 -375 -527 -798
-610 -1304 -28 -170 -25 -584 5 -759 50 -288 121 -505 243 -746 138 -273 191
-331 283 -315 23 4 51 8 63 8 11 1 19 5 16 10 -2 4 6 21 18 39 41 57 26 133
-53 264 -338 566 -402 1288 -167 1913 238 633 766 1133 1404 1326 671 203
1366 75 1940 -358 114 -86 319 -294 407 -413 611 -824 595 -1931 -40 -2724
-352 -439 -851 -720 -1412 -796 -216 -29 -537 -13 -750 36 -317 74 -648 240
-900 450 -111 92 -163 105 -238 59 -19 -12 -25 -10 -59 21 l-38 35 34 -37 c34
-37 34 -37 17 -71 -40 -85 -14 -143 108 -244 314 -259 723 -451 1101 -518 55
-10 112 -20 127 -24 l28 -6 -119 -176 c-95 -140 -121 -187 -130 -230 -24 -113
28 -226 129 -283 l55 -31 165 2 165 3 429 -1693 c236 -930 430 -1696 432
-1702 3 -6 -61 -10 -179 -11 l-183 -1 -23 121 c-92 471 -279 1043 -481 1462
-68 141 -93 164 -179 164 -46 0 -55 -4 -96 -43 -71 -68 -66 -104 49 -360 269
-597 442 -1258 513 -1960 24 -238 23 -743 -1 -950 -66 -575 -218 -983 -487
-1316 -78 -97 -195 -219 -202 -210 -3 2 -17 76 -32 164 -102 591 -284 1187
-516 1691 l-74 159 0 115 c0 108 2 119 31 180 19 40 66 105 123 170 296 337
444 706 458 1142 8 255 -17 430 -94 653 -45 131 -147 326 -231 445 -83 117
-278 315 -394 401 -405 298 -902 404 -1397 297 -208 -44 -406 -130 -599 -258
-162 -108 -176 -108 -332 -3 -461 307 -1010 384 -1522 213 -279 -93 -557 -278
-754 -500 -381 -431 -533 -1019 -408 -1579 35 -156 73 -263 149 -416 72 -143
151 -260 271 -396 97 -110 119 -145 146 -233 16 -53 20 -84 15 -140 -6 -78
-15 -104 -110 -316 -101 -225 -197 -485 -197 -531 0 -105 101 -180 195 -145
23 9 52 27 64 40 12 12 51 100 86 195 36 95 97 243 136 329 116 257 123 282
124 452 0 162 -14 222 -81 351 -34 64 -51 87 -194 254 -171 201 -284 448 -327
719 -22 139 -14 416 15 542 68 292 193 517 406 729 172 171 347 282 562 353
265 89 575 95 850 16 116 -33 327 -136 434 -213 124 -89 171 -105 305 -106
130 0 160 11 320 119 171 116 340 188 545 232 133 29 420 27 559 -4 291 -65
518 -189 726 -397 210 -210 342 -454 406 -755 32 -150 33 -429 1 -576 -61
-285 -168 -491 -377 -729 -160 -183 -219 -327 -219 -535 0 -147 12 -189 119
-431 178 -401 308 -795 410 -1242 38 -169 87 -429 104 -552 7 -44 14 -90 16
-101 4 -18 -7 -29 -63 -62 -168 -102 -456 -225 -670 -286 l-93 -27 -58 53
c-31 29 -80 65 -107 80 -101 54 -134 58 -551 58 -239 0 -402 -4 -435 -11 -139
-29 -282 -141 -346 -270 -17 -37 -32 -74 -32 -83 0 -14 -26 -16 -254 -16
l-253 0 -18 48 c-56 151 -195 276 -352 317 -84 22 -802 22 -886 0 -84 -22
-166 -66 -227 -124 l-55 -52 -119 36 c-66 20 -162 52 -215 71 -106 39 -368
166 -444 214 l-49 31 7 52 c15 119 68 412 100 560 39 175 42 215 21 255 -27
52 -62 75 -119 80 -62 5 -105 -12 -135 -56 -22 -30 -73 -246 -117 -492 -14
-80 -29 -153 -32 -164 -4 -15 -19 -5 -85 60 -419 414 -628 1054 -628 1922 0
994 279 2054 760 2893 79 138 292 463 312 475 5 3 145 7 311 9 332 3 368 9
387 60 19 50 12 94 -19 126 l-29 29 -256 0 c-141 0 -256 2 -256 4 0 2 14 33
30 68 37 79 62 194 59 266 -2 39 1 56 12 62 8 4 392 148 854 320 1408 523
1506 560 1615 601 l105 39 20 -27 c62 -86 154 -159 240 -192 23 -9 42 -20 42
-26 -1 -24 -298 -260 -484 -384 -344 -230 -655 -380 -1114 -535 -286 -97 -299
-105 -299 -182 0 -58 40 -104 91 -104 49 0 424 114 594 181 479 187 957 482
1345 829 47 42 90 80 97 84 30 17 342 -101 551 -209 156 -81 379 -225 510
-330 270 -217 535 -506 742 -806 32 -47 71 -94 86 -104 71 -46 176 -19 214 56
43 84 26 127 -149 359 -143 191 -230 290 -405 465 -303 302 -602 515 -968 689
-73 35 -173 78 -223 96 -49 18 -93 36 -97 39 -4 3 20 38 53 76 108 126 149
222 149 350 0 293 -275 535 -552 485 -109 -19 -178 -60 -298 -176 l-106 -103
-16 47 c-9 26 -58 166 -108 312 -188 544 -315 1055 -395 1591 -32 216 -31 212
-68 282 -36 69 -91 120 -166 156 -48 22 -68 26 -146 25 l-90 -1 -1383 -516
c-1030 -384 -1395 -524 -1430 -549 -58 -42 -117 -125 -137 -192 -22 -74 -19
-170 8 -236 13 -30 66 -127 118 -215 237 -396 465 -866 631 -1300 41 -107 188
-513 188 -519 0 -1 -39 2 -87 7 -49 5 -131 7 -184 4 -82 -3 -106 -9 -163 -35
-167 -78 -276 -253 -276 -442 0 -269 166 -452 444 -488 l56 -7 -75 -117 c-384
-599 -682 -1351 -826 -2086 l-22 -112 -121 6 c-300 16 -676 -50 -888 -157
-372 -186 -475 -515 -283 -904 80 -162 169 -279 345 -456 272 -273 591 -483
872 -576 l84 -27 32 -114 c66 -233 186 -495 313 -685 207 -309 472 -549 824
-745 185 -103 495 -229 693 -282 42 -11 42 -11 42 -58 0 -177 125 -368 292
-447 106 -50 184 -57 596 -53 324 4 351 6 413 26 131 44 241 137 297 254 l27
57 265 0 266 1 27 -56 c54 -109 171 -210 298 -256 63 -23 71 -23 469 -23 391
0 407 1 475 22 207 66 335 231 360 465 l6 56 132 42 c382 121 736 306 985 513
103 86 283 274 356 371 173 230 297 482 391 791 20 65 37 120 38 120 1 1 45
16 97 34 450 154 1000 621 1195 1016 75 152 99 242 99 380 l-1 110 905 1665
c497 916 906 1668 908 1671 2 4 68 -14 146 -38 115 -36 154 -44 198 -41 141
11 239 116 240 259 0 57 -9 90 -70 254 -38 104 -69 190 -67 192 2 1 72 -1 156
-6 454 -24 885 70 1281 281 816 434 1320 1280 1320 2213 0 406 -86 768 -270
1130 -88 174 -173 309 -219 348 -26 21 -43 27 -82 27 -28 0 -59 -5 -70 -11
-15 -8 -25 -7 -37 3 -15 11 -16 11 -4 -3 11 -14 9 -23 -14 -55 -42 -62 -32
-109 50 -235 423 -654 471 -1482 126 -2186 -333 -682 -991 -1139 -1744 -1212
-246 -24 -542 1 -755 65 l-52 15 88 93 c93 96 192 214 237 280 21 31 26 51 26
98 0 52 -4 62 -32 94 -39 41 -92 57 -145 42 -42 -11 -64 -33 -150 -144 -78
-100 -272 -290 -381 -373 -429 -325 -981 -483 -1503 -431 -378 38 -726 166
-1024 376 -121 85 -106 71 -243 233 l-122 145 117 32 c635 176 1194 634 1508
1236 202 388 295 797 281 1238 -11 379 -90 704 -250 1030 -25 51 -43 96 -41
99 11 10 284 -20 405 -45 231 -47 494 -151 695 -274 276 -169 552 -449 725
-734 116 -194 216 -442 264 -658 39 -177 50 -289 50 -488 0 -280 -34 -486
-125 -745 -27 -77 -49 -153 -49 -169 0 -39 36 -99 72 -120 39 -24 107 -24 146
-1 39 24 70 82 117 220 82 245 123 477 132 750 29 866 -407 1697 -1140 2173
-127 82 -130 68 43 151 199 95 444 165 674 192 145 17 462 7 602 -20 372 -70
719 -228 982 -446 38 -32 80 -58 100 -61 45 -9 100 1 124 22 18 17 21 16 76
-37 l57 -54 -53 56 c-52 55 -53 56 -37 85 21 40 19 103 -4 140 -46 75 -315
261 -535 369 -761 374 -1628 333 -2353 -111 l-105 -64 -102 35 c-252 86 -500
127 -779 129 l-179 1 -69 87 c-396 494 -1006 830 -1631 897 -115 13 -439 12
-553 -1z m-3576 -2524 c22 -9 47 -27 56 -41 11 -15 28 -98 46 -212 83 -534
200 -1023 366 -1528 9 -29 14 -55 11 -58 -5 -5 -271 -105 -1782 -666 -771
-287 -795 -295 -796 -256 0 13 -135 346 -200 492 -131 298 -358 731 -522 1000
-63 104 -71 128 -57 177 16 60 60 88 254 160 99 37 605 225 1125 418 520 194
1042 388 1160 432 300 112 278 107 339 82z m590 -2124 c10 -30 44 -126 75
-212 l55 -156 -202 -75 c-111 -42 -687 -256 -1280 -476 -592 -221 -1081 -401
-1085 -401 -4 0 -42 97 -83 216 -66 186 -74 216 -60 222 224 89 2548 947 2553
943 4 -4 16 -31 27 -61z m805 -2 c27 -8 61 -32 98 -69 45 -45 60 -68 73 -114
32 -108 2 -178 -144 -335 l-79 -85 -74 0 c-130 0 -232 67 -290 191 -54 116
-56 112 79 251 157 163 224 194 337 161z m2834 -505 c88 -104 159 -189 158
-190 -4 -4 -749 -43 -753 -40 -1 2 59 94 134 205 l137 201 46 4 c129 10 100
28 278 -180z m587 -511 c123 -69 260 -129 454 -197 9 -4 -37 -57 -131 -153
-167 -171 -188 -205 -188 -308 0 -84 22 -137 80 -193 47 -45 104 -67 201 -77
37 -4 72 -10 78 -14 8 -5 -16 -226 -89 -793 -55 -432 -100 -794 -101 -804 0
-16 -1 -16 -10 2 -5 11 -155 585 -334 1275 -179 690 -328 1263 -331 1273 -4
14 1 17 33 17 40 0 132 39 153 65 10 12 18 10 54 -14 22 -15 82 -51 131 -79z
m2734 64 c41 -13 78 -30 82 -39 8 -14 169 -444 169 -451 0 -1 -156 46 -347
105 -192 60 -354 109 -360 109 -7 0 -13 4 -13 9 0 5 89 72 198 150 108 78 197
141 197 141 0 0 33 -11 74 -24z m-2837 -1761 c251 -968 458 -1753 461 -1745 3
8 77 577 164 1263 87 687 161 1253 164 1259 5 8 43 6 130 -5 67 -10 124 -19
126 -21 3 -3 -291 -2480 -302 -2540 -3 -16 -2 -26 2 -22 5 4 380 688 835 1519
757 1385 828 1512 850 1509 12 -1 74 -18 136 -38 l113 -35 -29 -52 c-17 -29
-472 -866 -1012 -1862 -540 -995 -993 -1827 -1006 -1848 -30 -45 -78 -77 -119
-77 -39 0 -94 28 -117 60 -16 22 -1118 4335 -1118 4375 0 14 86 22 215 21 l50
-1 457 -1760z m2066 1352 c26 -48 82 -99 124 -113 10 -3 18 -12 16 -19 -4 -19
-1182 -2174 -1186 -2170 -3 3 187 1603 193 1621 2 7 21 8 57 3 29 -4 78 -8
108 -8 142 -1 260 119 260 264 0 73 -11 97 -124 288 -109 185 -107 177 -63
177 77 0 286 33 425 68 l147 37 8 -49 c4 -27 20 -71 35 -99z m-1008 47 c13 -4
265 -423 258 -429 -8 -8 -743 92 -739 100 2 6 76 86 164 179 l161 168 71 -6
c38 -4 77 -9 85 -12z m-7905 -85 c38 -5 72 -15 77 -21 4 -7 17 -43 29 -80 44
-139 11 -269 -92 -362 -59 -53 -65 -54 -229 -31 -178 25 -255 81 -280 200 -28
136 32 258 149 302 39 15 214 11 346 -8z m-1201 -3369 c-1 -14 -9 -99 -18
-190 -39 -405 -40 -763 -2 -1111 8 -68 13 -126 11 -128 -7 -6 -117 48 -214
106 -471 281 -845 742 -807 996 24 156 236 282 556 331 144 22 165 23 330 22
l145 -1 -1 -25z m8023 24 l81 -7 22 -86 c94 -379 145 -557 174 -600 44 -63 96
-101 173 -126 l67 -22 -114 -118 c-130 -132 -270 -249 -410 -341 -101 -66
-278 -159 -286 -151 -3 3 3 81 13 173 24 228 24 765 -1 999 -9 88 -19 188 -23
223 l-6 62 114 0 c63 0 151 -3 196 -6z m-4824 -3490 c83 -42 121 -108 115
-200 -5 -82 -38 -132 -109 -168 l-53 -26 -351 0 c-371 0 -392 2 -453 47 -69
51 -98 174 -59 248 19 38 74 91 107 104 15 6 177 10 398 10 325 1 377 -1 405
-15z m2137 -6 c126 -64 146 -236 40 -332 -21 -19 -56 -39 -77 -45 -53 -15
-705 -15 -758 0 -55 15 -120 82 -135 139 -25 92 18 194 99 237 44 23 46 23
415 23 366 0 372 0 416 -22z"/>
<path d="M15540 14667 c0 -2 15 -16 33 -33 l32 -29 -29 33 c-28 30 -36 37 -36
29z"/>
<path d="M7615 12350 c10 -11 20 -20 23 -20 3 0 -3 9 -13 20 -10 11 -20 20
-23 20 -3 0 3 -9 13 -20z"/>
<path d="M7640 12317 c0 -2 15 -16 33 -33 l32 -29 -29 33 c-28 30 -36 37 -36
29z"/>
<path d="M17595 10116 c-29 -15 -61 -41 -75 -63 l-25 -37 -3 -1148 c-2 -1132
-2 -1149 18 -1188 32 -62 81 -94 154 -98 73 -4 115 15 160 71 l31 39 5 775 5
774 456 -797 c347 -608 464 -805 492 -827 62 -51 171 -49 231 3 22 20 183 292
487 824 l454 795 5 -1238 5 -1237 27 -41 c48 -73 144 -101 225 -68 48 20 71
41 94 87 18 36 19 87 19 1649 l0 1612 -25 43 c-61 105 -205 123 -289 36 -14
-16 -270 -453 -567 -973 -297 -519 -544 -948 -548 -952 -5 -5 -246 407 -536
915 -290 508 -540 944 -557 970 -57 91 -153 120 -243 74z"/>
<path d="M22255 10133 c-151 -18 -310 -65 -437 -129 -208 -104 -433 -307 -570
-514 -169 -253 -271 -539 -309 -864 -19 -159 -6 -453 25 -603 42 -199 85 -322
130 -371 79 -87 232 -69 292 34 32 55 31 115 -6 229 -130 408 -95 855 97 1226
161 312 420 531 709 600 78 19 108 21 249 16 163 -6 262 -23 395 -67 103 -33
240 -105 309 -161 102 -82 158 -96 236 -60 98 45 139 151 96 247 -60 132 -415
320 -722 383 -162 33 -380 48 -494 34z"/>
<path d="M25415 10121 c-23 -10 -52 -32 -67 -49 -28 -33 -1285 -3163 -1295
-3224 -7 -47 12 -101 50 -145 73 -83 184 -85 269 -5 19 18 59 103 134 293
l107 268 623 3 622 3 44 30 c50 35 88 102 88 155 0 43 -29 107 -61 137 -58 53
-57 53 -629 53 -502 0 -531 1 -526 18 3 9 165 415 360 901 284 710 355 881
363 865 6 -10 250 -619 543 -1353 559 -1398 554 -1387 627 -1417 128 -54 286
68 257 199 -3 18 -292 746 -641 1619 -693 1734 -648 1632 -740 1657 -53 15
-82 13 -128 -8z"/>
<path d="M27605 10126 c-40 -17 -84 -63 -101 -103 -12 -27 -14 -233 -14 -1168
0 -1114 0 -1137 20 -1175 31 -61 81 -93 151 -98 34 -3 72 1 89 8 43 18 97 82
111 132 9 32 10 220 6 753 -3 391 -2 719 2 729 6 15 111 -163 458 -770 344
-601 460 -796 487 -818 29 -24 49 -31 96 -34 73 -5 109 8 152 57 18 20 227
375 463 789 l430 753 7 -53 c12 -96 28 -1072 28 -1712 0 -621 0 -630 21 -674
28 -57 84 -94 153 -100 98 -8 177 56 196 159 7 36 9 604 8 1624 -3 1525 -4
1571 -22 1609 -57 115 -220 138 -303 43 -15 -18 -268 -453 -562 -967 -294
-514 -539 -941 -546 -948 -9 -10 -124 183 -550 930 -296 519 -549 958 -563
977 -46 61 -147 88 -217 57z"/>
<path d="M32250 10135 c-8 -2 -49 -9 -90 -15 -170 -28 -380 -120 -534 -233
-384 -284 -631 -743 -687 -1276 -38 -364 53 -877 172 -973 107 -87 266 -34
298 99 11 44 9 57 -13 128 -117 372 -119 729 -6 1067 143 426 467 745 828 814
193 37 504 -4 707 -94 80 -35 186 -98 241 -144 55 -45 103 -62 160 -55 91 10
164 92 164 185 0 81 -27 118 -151 212 -241 180 -620 293 -971 289 -57 -1 -110
-3 -118 -4z"/>
<path d="M4692 8579 c-188 -37 -332 -210 -332 -398 0 -124 108 -196 216 -145
46 22 73 63 83 123 10 62 30 94 70 111 65 26 127 -17 140 -96 10 -66 37 -112
81 -135 71 -38 158 -15 201 53 30 48 23 171 -14 251 -53 116 -177 213 -301
236 -67 12 -83 12 -144 0z"/>
<path d="M7327 8580 c-107 -19 -217 -95 -274 -191 -35 -58 -63 -152 -63 -208
0 -54 34 -114 79 -139 102 -57 209 4 226 128 20 148 189 140 209 -9 15 -115
137 -179 226 -118 60 40 75 71 74 145 -4 246 -235 435 -477 392z"/>
<path d="M5857 8115 c-153 -29 -274 -91 -363 -187 -96 -102 -144 -238 -144
-408 0 -362 179 -687 454 -824 95 -48 173 -67 276 -67 163 -2 315 61 446 184
162 151 253 346 284 603 42 350 -117 597 -440 685 -101 28 -397 36 -513 14z
m413 -306 c69 -14 165 -64 191 -100 34 -48 49 -108 49 -196 0 -176 -64 -347
-173 -457 -122 -124 -255 -154 -388 -89 -128 63 -231 203 -276 373 -21 81 -24
249 -4 303 26 76 93 131 191 157 110 30 283 33 410 9z"/>
<path d="M17645 7455 c-5 -2 -22 -6 -37 -9 -41 -9 -95 -61 -113 -109 -13 -36
-16 -77 -13 -243 3 -200 3 -201 31 -242 34 -52 91 -82 154 -82 60 0 108 24
147 73 l31 39 3 201 c2 111 0 217 -3 235 -7 37 -55 97 -94 116 -28 14 -90 26
-106 21z"/>
<path d="M31505 7425 c-5 -2 -22 -6 -37 -9 -37 -8 -98 -63 -114 -103 -20 -46
-17 -117 5 -162 23 -44 117 -134 228 -218 182 -138 384 -235 573 -273 91 -19
127 -21 275 -17 383 12 687 115 956 324 68 53 99 105 99 167 0 86 -45 151
-125 182 -72 27 -119 14 -218 -60 -203 -151 -474 -236 -752 -236 -244 0 -442
86 -680 297 -49 44 -99 84 -110 90 -23 12 -85 23 -100 18z"/>
<path d="M21445 7406 c-66 -29 -105 -94 -105 -172 0 -65 29 -113 117 -193 219
-201 491 -343 732 -385 339 -58 802 43 1102 240 176 116 228 205 184 312 -52
123 -198 156 -302 68 -191 -162 -482 -258 -783 -258 -95 0 -143 4 -201 20
-156 42 -335 147 -487 287 -46 42 -95 80 -109 86 -35 13 -113 11 -148 -5z"/>
<path d="M27655 7325 c-5 -2 -22 -6 -37 -9 -39 -9 -88 -54 -109 -101 -16 -34
-19 -67 -19 -234 0 -178 2 -198 21 -239 60 -123 236 -135 318 -21 l31 42 0
215 c0 209 -1 216 -24 256 -13 23 -41 51 -63 63 -37 21 -98 36 -118 28z"/>
<path d="M5047 6470 c-93 -24 -154 -81 -207 -195 -64 -136 -89 -281 -90 -502
0 -280 51 -487 152 -615 35 -45 116 -86 184 -94 157 -19 432 79 775 276 l144
82 48 -11 c62 -14 122 -14 184 0 l49 12 95 -57 c149 -91 394 -209 514 -249
250 -82 383 -72 484 37 216 237 216 995 0 1232 -78 84 -165 106 -315 80 -50
-8 -131 -29 -180 -46 -110 -39 -354 -157 -493 -240 l-104 -62 -55 11 c-70 14
-136 13 -187 -3 -39 -12 -42 -11 -130 42 -371 224 -709 342 -868 302z m270
-206 c162 -53 533 -238 533 -266 0 -6 -8 -25 -19 -42 -62 -103 -67 -237 -13
-346 18 -35 32 -67 32 -71 0 -23 -390 -219 -524 -263 -95 -31 -196 -49 -233
-40 -63 15 -110 90 -145 232 -20 76 -22 114 -22 297 -1 222 8 286 54 408 54
143 122 162 337 91z m1929 11 c128 -128 164 -631 65 -897 -51 -134 -94 -160
-227 -134 -45 9 -124 32 -175 52 -93 35 -356 166 -435 216 l-41 26 34 70 c44
87 52 162 29 252 -9 36 -28 81 -41 102 -18 27 -21 39 -12 46 7 5 71 42 142 81
254 139 445 210 568 210 60 1 71 -2 93 -24z m-1015 -331 c40 -20 87 -79 99
-125 27 -101 -38 -212 -141 -239 -67 -18 -159 13 -198 68 -84 118 -25 281 113
312 38 8 92 2 127 -16z"/>
</g>
</svg>
